<!DOCTYPE svg PUBLIC "-//W3C//DTD SVG 1.1//EN" "http://www.w3.org/Graphics/SVG/1.1/DTD/svg11.dtd">
<!-- Uploaded to: SVG Find, www.svgrepo.com, Transformed by: SVG Find Mixer Tools -->
<svg fill="#ffffff" width="800px" height="800px" version="1.1" viewBox="144 144 512 512" xmlns="http://www.w3.org/2000/svg">

<g id="SVGRepo_bgCarrier" stroke-width="0"/>

<g id="SVGRepo_tracerCarrier" stroke-linecap="round" stroke-linejoin="round"/>

<g id="SVGRepo_iconCarrier"> <g> <path d="m400 442.95c-35.375-0.039063-69.285-14.109-94.297-39.121s-39.082-58.922-39.121-94.293c7.3281-177 259.53-176.95 266.86 0-0.039062 35.375-14.113 69.293-39.133 94.305-25.016 25.012-58.938 39.078-94.312 39.109zm0-251.56c-31.328 0.035156-61.359 12.492-83.512 34.641-22.152 22.148-34.613 52.176-34.656 83.504 6.4961 156.76 229.86 156.71 236.33 0-0.039062-31.328-12.504-61.355-34.656-83.504-22.152-22.148-52.184-34.605-83.508-34.641z"/> <path d="m347.73 340.86h-24.309c-2.0195 0-3.9609-0.80469-5.3906-2.2344-1.4297-1.4297-2.2305-3.3711-2.2266-5.3945v-58.34c0-4.207 3.4102-7.6172 7.6172-7.6172h24.309c2.0234-0.003906 3.9648 0.79688 5.3945 2.2266 1.4297 1.4297 2.2344 3.3711 2.2344 5.3906v58.34c0 4.2148-3.4141 7.6289-7.6289 7.6289zm-16.68-15.246h9.0547v-43.094h-9.0547z"/> <path d="m372.05 399.21h-24.312c-4.2109 0-7.625-3.4141-7.625-7.6289v-58.355c0.015625-2.3359 1.0977-4.5352 2.9375-5.9766s4.2344-1.9688 6.5078-1.4297l24.309 5.9258v0.003906c3.4141 0.82812 5.8203 3.8906 5.8164 7.4062v52.41c0.007812 2.0273-0.79297 3.9766-2.2266 5.4102-1.4336 1.4336-3.3789 2.2383-5.4062 2.2344zm-16.684-15.27h9.0547v-38.797l-9.0547-2.2109z"/> <path d="m473.83 329.69h-24.312c-4.207 0-7.6172-3.4141-7.6172-7.6211v-36.008c-0.003906-2.0234 0.79688-3.9609 2.2266-5.3945 1.4297-1.4297 3.3711-2.2344 5.3906-2.2344h24.312c4.2109 0 7.625 3.418 7.625 7.6289v36.008c0 2.0195-0.80078 3.9609-2.2344 5.3906-1.4297 1.4297-3.3711 2.2305-5.3906 2.2305zm-16.684-15.25h9.0625v-20.711h-9.0625z"/> <path d="m449.52 365.77c-0.60938 0.003907-1.2148-0.070312-1.8086-0.21875l-101.78-24.906c-3.418-0.83594-5.8242-3.8984-5.8242-7.418v-58.34c0-3.5117 2.4023-6.5664 5.8164-7.3984l101.79-24.93c2.2734-0.53516 4.668-0.007813 6.5039 1.4297 1.8398 1.4414 2.9219 3.6406 2.9414 5.9766v108.18c-0.027344 4.2031-3.4297 7.6016-7.6367 7.625zm-94.156-38.531 86.539 21.184v-88.727l-86.539 21.184z"/> <path d="m400 623.89c-17.891-0.019531-35.043-7.1367-47.691-19.789-12.648-12.648-19.762-29.801-19.781-47.691 3.543-89.441 131.41-89.418 134.94 0-0.019531 17.891-7.1328 35.043-19.781 47.691-12.648 12.652-29.801 19.77-47.688 19.789zm0-119.7c-13.848 0.015625-27.121 5.5195-36.91 15.309-9.7891 9.7891-15.297 23.062-15.312 36.906 2.457 69.117 102 69.102 104.45 0-0.019531-13.844-5.5273-27.117-15.316-36.906s-23.062-15.293-36.906-15.309z"/> <path d="m446.77 601.37c-2.7266 0.015625-5.25-1.4297-6.6211-3.7852-8.8438-13.738-23.82-22.312-40.145-22.984-16.324 0.67578-31.301 9.25-40.148 22.984-2.1875 3.5078-6.7734 4.6328-10.34 2.5352-3.5625-2.0938-4.8086-6.6484-2.8086-10.266 11.551-18.434 31.551-29.875 53.297-30.488 21.773 0.58984 41.801 12.055 53.34 30.527 1.3516 2.3594 1.3516 5.2617 0 7.6211-1.3516 2.3594-3.8555 3.8281-6.5742 3.8555z"/> <path d="m400 554.33c-8.0234-0.14844-15.371-4.5117-19.336-11.484-3.9688-6.9727-3.9688-15.52 0-22.488 3.9648-6.9727 11.312-11.336 19.336-11.488 8.0195 0.15234 15.367 4.5156 19.336 11.488 3.9648 6.9688 3.9648 15.516 0 22.488-3.9688 6.9727-11.316 11.336-19.336 11.484zm0-30.211c-4.1328 0-7.4805 3.3477-7.4805 7.4766 0 4.1328 3.3477 7.4805 7.4805 7.4805 4.1289 0 7.4766-3.3477 7.4766-7.4805 0-4.1289-3.3477-7.4766-7.4766-7.4766z"/> <path d="m223.44 623.89c-17.891-0.019531-35.039-7.1367-47.691-19.789-12.648-12.648-19.762-29.801-19.781-47.691 3.543-89.441 131.41-89.418 134.94 0-0.015625 17.891-7.1328 35.043-19.781 47.691-12.648 12.652-29.797 19.77-47.688 19.789zm0-119.7c-13.844 0.019532-27.117 5.5234-36.906 15.312-9.7891 9.7891-15.297 23.059-15.316 36.902 2.457 69.117 102 69.102 104.45 0-0.015625-13.844-5.5234-27.117-15.316-36.906-9.7891-9.7891-23.062-15.293-36.906-15.309z"/> <path d="m270.2 601.37c-2.7109 0.007812-5.2188-1.4297-6.5859-3.7695-8.8438-13.738-23.824-22.312-40.148-22.984-16.328 0.67969-31.301 9.2617-40.148 23-2.1875 3.5078-6.7734 4.6328-10.336 2.5391-3.5664-2.0977-4.8086-6.6523-2.8086-10.27 11.551-18.457 31.566-29.91 53.332-30.52 21.773 0.58984 41.805 12.055 53.34 30.527 1.3594 2.3711 1.3516 5.2891-0.015625 7.6523-1.3711 2.3633-3.8945 3.8242-6.6289 3.8242z"/> <path d="m223.44 554.33c-8.0195-0.14844-15.367-4.5117-19.336-11.484s-3.9688-15.52 0-22.488c3.9688-6.9727 11.316-11.336 19.336-11.488 8.0195 0.15234 15.367 4.5156 19.336 11.488 3.9648 6.9688 3.9648 15.516 0 22.488-3.9688 6.9727-11.316 11.336-19.336 11.484zm0-30.211c-4.1289 0-7.4805 3.3477-7.4805 7.4766 0 4.1328 3.3516 7.4805 7.4805 7.4805s7.4766-3.3477 7.4766-7.4805c0-4.1289-3.3477-7.4766-7.4766-7.4766z"/> <path d="m576.56 623.89c-17.887-0.019531-35.039-7.1367-47.688-19.789-12.648-12.648-19.762-29.801-19.781-47.691 3.5352-89.441 131.41-89.418 134.94 0-0.019531 17.891-7.1328 35.043-19.781 47.691-12.648 12.652-29.801 19.77-47.691 19.789zm0-119.7c-13.836 0.027344-27.098 5.5352-36.883 15.324-9.7812 9.7891-15.281 23.055-15.301 36.891 2.457 69.117 102 69.102 104.45 0h0.003907c-0.019531-13.848-5.5352-27.125-15.332-36.918-9.8008-9.7891-23.082-15.289-36.934-15.297z"/> <path d="m623.33 601.37c-2.7031 0.007812-5.2109-1.4219-6.582-3.7539-8.3672-14.25-23.66-23.004-40.188-23.004s-31.816 8.7539-40.184 23.004c-2.1914 3.5078-6.7734 4.6328-10.34 2.5391-3.5625-2.0977-4.8086-6.6523-2.8086-10.27 11.113-18.902 31.406-30.512 53.332-30.512 21.93 0 42.223 11.609 53.336 30.512 1.3477 2.3594 1.3477 5.2578 0 7.6211-1.3516 2.3594-3.8477 3.832-6.5664 3.8633z"/> <path d="m576.56 554.33c-8.0195-0.14844-15.367-4.5117-19.336-11.484-3.9648-6.9727-3.9648-15.52 0-22.488 3.9688-6.9727 11.316-11.336 19.336-11.488 8.0234 0.15234 15.371 4.5156 19.336 11.488 3.9688 6.9688 3.9688 15.516 0 22.488-3.9648 6.9727-11.312 11.336-19.336 11.484zm0-30.211c-4.1289 0-7.4766 3.3477-7.4766 7.4766 0 4.1328 3.3477 7.4805 7.4766 7.4805 4.1328 0 7.4805-3.3477 7.4805-7.4805 0-4.1289-3.3477-7.4766-7.4805-7.4766z"/> <path d="m223.43 504.19c-2.7617-0.035156-5.2891-1.5508-6.6211-3.9688-1.332-2.418-1.2617-5.3672 0.17969-7.7188l72.887-115.79c2.2812-3.4805 6.9258-4.4961 10.445-2.2812 3.5195 2.2188 4.6172 6.8438 2.4648 10.402l-72.895 115.79c-1.3945 2.2227-3.8359 3.5703-6.4609 3.5664z"/> <path d="m400 504.19c-4.2148 0-7.6289-3.4141-7.6289-7.625v-61.246c0-4.2109 3.4141-7.6289 7.6289-7.6289 4.2109 0 7.625 3.418 7.625 7.6289v61.246c0 2.0195-0.80078 3.9609-2.2344 5.3906-1.4297 1.4336-3.3672 2.2344-5.3906 2.2344z"/> <path d="m576.57 504.19c-2.6211 0.003906-5.0625-1.3438-6.4609-3.5664l-72.895-115.79c-2.1523-3.5586-1.0547-8.1836 2.4648-10.402 3.5195-2.2148 8.168-1.1992 10.445 2.2812l72.895 115.79c1.4453 2.3516 1.5117 5.3008 0.17969 7.7227-1.3359 2.418-3.8672 3.9336-6.6289 3.9648z"/> </g> </g>

</svg>
