<!DOCTYPE svg PUBLIC "-//W3C//DTD SVG 1.1//EN" "http://www.w3.org/Graphics/SVG/1.1/DTD/svg11.dtd">
<!-- Uploaded to: SVG Find, www.svgrepo.com, Transformed by: SVG Find Mixer Tools -->
<svg fill="#ffffff" width="800px" height="800px" version="1.1" viewBox="144 144 512 512" xmlns="http://www.w3.org/2000/svg">
<g id="SVGRepo_bgCarrier" stroke-width="0"/>
<g id="SVGRepo_tracerCarrier" stroke-linecap="round" stroke-linejoin="round"/>
<g id="SVGRepo_iconCarrier"> <g> <path d="m588.93 428.21h-108.32c-25.191 0-45.344 20.152-45.344 45.344v108.32c0 25.191 20.152 45.344 45.344 45.344h108.32c25.191 0 45.344-20.152 45.344-45.344l-0.003907-108.32c0-24.688-20.152-45.344-45.344-45.344zm30.23 153.66c0 16.625-13.602 30.23-30.23 30.23l-108.32-0.003907c-16.625 0-30.23-13.602-30.23-30.23v-108.32c0-16.625 13.602-30.23 30.23-30.23h108.32c16.625 0 30.23 13.602 30.23 30.23z"/> <path d="m535.02 371.79c54.914 0 99.25-44.336 99.25-99.25 0-54.914-44.336-99.754-99.25-99.754-54.914 0-99.25 44.336-99.25 99.25s44.336 99.754 99.25 99.754zm0-183.89c46.352 0 84.137 37.785 84.137 84.137s-37.785 84.641-84.137 84.641c-46.352 0-84.137-37.785-84.137-84.137 0-46.352 37.785-84.641 84.137-84.641z"/> <path d="m187.39 371.79h183.39c4.0312 0 7.5586-3.5273 7.5586-7.5586v-183.89c0-4.0312-3.5273-7.5586-7.5586-7.5586l-183.39 0.003906c-4.0312 0-7.5586 3.5273-7.5586 7.5547v183.39c0 4.5352 3.5273 8.0625 7.5586 8.0625zm7.5586-183.89h168.27v168.27h-168.27z"/> <path d="m285.63 432.24c-1.5117-2.5195-4.0312-4.0312-6.5508-4.0312s-5.0391 1.5117-6.5508 4.0312l-105.8 183.39c-0.50391 1.0078-1.0078 2.5195-1.0078 4.0312 0 1.5117 0.50391 2.5195 1.0078 4.0312 1.5156 2.0156 4.0352 3.5234 6.5547 3.5234h212.11c2.5195 0 5.0391-1.5117 6.5508-4.0312 0.50391-1.0078 1.0078-2.5195 1.0078-4.0312 0-1.5117-0.50391-2.5195-1.0078-4.0312zm-99.25 179.86 92.703-161.22 92.699 160.71h-185.4z"/> </g> </g>
</svg>