<!DOCTYPE svg PUBLIC "-//W3C//DTD SVG 1.1//EN" "http://www.w3.org/Graphics/SVG/1.1/DTD/svg11.dtd">
<!-- Uploaded to: SVG Find, www.svgrepo.com, Transformed by: SVG Find Mixer Tools -->
<svg fill="#ffffff" width="800px" height="800px" version="1.1" viewBox="144 144 512 512" xmlns="http://www.w3.org/2000/svg">
<g id="SVGRepo_bgCarrier" stroke-width="0"/>
<g id="SVGRepo_tracerCarrier" stroke-linecap="round" stroke-linejoin="round"/>
<g id="SVGRepo_iconCarrier"> <g> <path d="m346.12 175.51c-51.168 48.051-16.57 133.94 52.801 133.77 19.582 0.03125 38.441-7.3945 52.742-20.773 72.051-73.109-27.73-179.88-105.54-112.99zm97.484 104.36c-65.93 56.68-150.45-33.809-89.426-95.734 12.117-11.336 28.098-17.633 44.691-17.602 58.777-0.14844 88.078 72.648 44.734 113.34z"/> <path d="m405.8 225.83-0.32422-21.648v0.003906c4.293 0.80078 8.3008 2.7344 11.602 5.5977 5.6758 5.3828 13.707-2.5195 8.4219-8.2852-5.6211-5.1016-12.672-8.3555-20.203-9.3203l-0.078125-5.2539c-0.046875-3.2617-2.7305-5.8633-5.9922-5.8164-3.2617 0.050781-5.8633 2.7344-5.8164 5.9961l0.078126 5.3906c-10.391 2.1445-20.082 11.809-19.68 22.465 0.19531 13.188 11.809 17.504 20.348 19.855l0.38281 25.023h0.003906c-5.2148-1.1211-9.9844-3.7617-13.707-7.5859-5.293-5.7266-13.824 1.5742-8.9727 7.6836 6.0625 6.4336 14.113 10.641 22.855 11.938l0.078125 5.2852h0.003907c0.046874 3.2617 2.7305 5.8633 5.9922 5.8164 3.2578-0.050781 5.8633-2.7344 5.8125-5.9961l-0.078125-5.3633c27.535-7.0039 29.875-36.691-0.72656-45.785zm-20.211-11.098c0.19531-5.3438 4.3086-8.3047 8.0898-9.9961l0.26562 17.625c-5.6719-1.9023-8.2969-3.9102-8.3555-7.6289zm20.723 44.652-0.31641-20.93c15.812 6.7617 11.199 16.699 0.31641 20.93z"/> <path d="m540.27 356.97c-4.2344-34.5-50.039-56.609-80.246-40.609-15.742 7.2539-26.262 18.883-32.195 25.199-5.0078 5.3711-5.3047 5.6992-14.523 5.0586-3.6406-0.25391-8.1758-0.57031-14.387-0.57031-6.2109 0-10.746 0.31641-14.387 0.57031-8.6992 0.60156-9.2109 0.62891-14.523-5.0586-5.9023-6.3086-16.48-17.957-32.195-25.199-30.219-15.961-76.055 6.1602-80.266 40.648-3.5039 25.723 13.777 51.531 20.496 60.418-26.656 50.301-23.52 113.74 16.531 162.02 2.7656 3.5039 6.1992 7.8711 6.1875 9.2109-3.2969 9.4766-9.9961 22.395-2.668 34.441 4.457 6.8867 13.227 10.824 26.047 11.551 40.344 1.9688 45.766-10.934 51.168-21.188 1.3672-2.6172 10.566-5.3125 23.617-5.3125 13.883 0.27734 22.633 2.2148 24.188 6.4336 5.2852 12.84 18.961 22.27 50.586 20.062 12.793-0.72656 21.59-4.6133 26.047-11.551 7.3203-12.004 0.62891-24.934-2.6562-34.383 0-1.3867 3.4141-5.7461 6.1797-9.25 40.195-48.402 43.059-112.07 16.531-162.02 6.6797-8.9414 23.969-34.75 20.469-60.473zm-32.031 55.98c-1.6133 1.8984-1.8633 4.6094-0.62109 6.7695 22.996 41.477 28.191 101.55-13.656 152.37-7.4688 9.3477-11.258 14.762-6.6211 24.324 2.1758 5.6094 5.8242 14.988 2.4492 20.23-2.8633 4.457-10.715 5.8047-16.797 6.1484-32.766 1.5234-35.531-6.4258-40.02-14.867-2.7734-5.3125-10.941-11.652-34.074-11.652-24.305 0.35547-31.203 5.9023-34.695 12.879-3.4922 6.9766-7.8711 15.449-39.359 13.637-6.082-0.34375-13.934-1.6914-16.797-6.1484-4.082-7.0352 1.9688-17.871 4.1211-24.934 1.8398-6.75-2.6289-12.43-8.2969-19.621-8.3242-10.566-22.27-28.262-29.59-63.379-9.2891-44.516 15.676-88.559 15.922-88.992v0.003906c1.25-2.1562 1.0078-4.8672-0.60156-6.7695-0.23437-0.28516-23.871-28.535-20.34-54.426 1.4648-10.695 7.2734-19.355 17.711-26.469 32.473-21.922 57.918-0.25391 74.695 17.859h0.003906c-14.137 3.793-27.125 11-37.824 20.988-2.2891 2.2305-2.3906 5.8789-0.22266 8.2305 2.168 2.3477 5.8125 2.5469 8.2227 0.44922 19.285-18.047 40.562-21.766 67.051-21.766 26.488 0 47.793 3.7383 67.051 21.766h-0.003907c1.1445 1.1094 2.6875 1.7148 4.2812 1.6719 1.5938-0.042968 3.1016-0.72656 4.1797-1.9023 1.082-1.1719 1.6445-2.7305 1.5547-4.3203-0.085938-1.5938-0.8125-3.082-2.0156-4.1289-10.699-9.9883-23.688-17.195-37.824-20.988 16.727-18.117 42.203-39.785 74.695-17.859 10.48 7.1133 16.285 15.742 17.711 26.469 3.5742 25.848-20.051 54.141-20.289 54.426z"/> <path d="m400.4 462.45c-55.988 0-63.703 22.906-63.703 47.656 3.3164 63.184 124.11 63.152 127.41 0-0.003906-24.75-7.7188-47.656-63.707-47.656zm0 83.512c-28.613 0-51.895-16.09-51.895-35.855 0-19.609 3.9375-35.848 51.895-35.848 47.961 0 51.895 16.234 51.895 35.848 0 19.777-23.281 35.855-51.895 35.855z"/> <path d="m360.19 429.44c6.1211-0.11719 11.211-4.7422 11.914-10.824 0.33984-2.793-0.54687-5.5977-2.4375-7.6836-1.8867-2.0859-4.5898-3.25-7.4023-3.1914-6.1367 0.11719-11.234 4.7734-11.906 10.875-0.32812 2.7812 0.56641 5.5742 2.4492 7.6484 1.8867 2.0742 4.5781 3.2344 7.3828 3.1758z"/> <path d="m379.45 494.3c-3.2617 0-5.9062 2.6445-5.9062 5.9062v16.266c0.27734 7.8125 11.543 7.8125 11.809 0v-16.266c0-3.2617-2.6406-5.9062-5.9023-5.9062z"/> <path d="m437.61 429.44c2.8047 0.058594 5.4961-1.1016 7.3828-3.1758s2.7852-4.8633 2.457-7.6484c-0.67969-6.1016-5.7773-10.754-11.914-10.875-2.8125-0.058594-5.5117 1.1094-7.3984 3.1953-1.8867 2.0859-2.7773 4.8867-2.4414 7.6797 0.70312 6.082 5.793 10.707 11.914 10.824z"/> <path d="m418.34 494.3c-3.2617 0-5.9023 2.6445-5.9023 5.9062v16.266c0.26562 7.8125 11.531 7.8125 11.809 0v-16.266c0-3.2617-2.6445-5.9062-5.9062-5.9062z"/> </g> </g>
</svg>