<!DOCTYPE svg PUBLIC "-//W3C//DTD SVG 1.1//EN" "http://www.w3.org/Graphics/SVG/1.1/DTD/svg11.dtd">
<!-- Uploaded to: SVG Find, www.svgrepo.com, Transformed by: SVG Find Mixer Tools -->
<svg fill="#ffffff" width="800px" height="800px" version="1.1" viewBox="144 144 512 512" xmlns="http://www.w3.org/2000/svg">
<g id="SVGRepo_bgCarrier" stroke-width="0"/>
<g id="SVGRepo_tracerCarrier" stroke-linecap="round" stroke-linejoin="round"/>
<g id="SVGRepo_iconCarrier"> <g> <path d="m297.93 193.28-110.21 409.34v0.003906c-1.1289 4.1992 1.3594 8.5195 5.5547 9.6484 4.1992 1.1328 8.5195-1.3555 9.6523-5.5547l110.21-409.34v-0.003906c1.1289-4.1992-1.3555-8.5195-5.5547-9.6484s-8.5195 1.3594-9.6523 5.5547z"/> <path d="m492.42 187.72c-2.0195 0.54297-3.7383 1.8633-4.7773 3.6719-1.043 1.8125-1.3242 3.9609-0.78125 5.9766l110.21 409.34c1.1289 4.1992 5.4492 6.6875 9.6484 5.5586 2.0195-0.54297 3.7344-1.8672 4.7773-3.6758 1.043-1.8086 1.3242-3.957 0.78125-5.9766l-110.21-409.34h-0.003906c-0.53906-2.0156-1.8594-3.7383-3.6719-4.7773-1.8086-1.043-3.957-1.3242-5.9727-0.77734z"/> <path d="m400 486.59c-4.3477 0-7.875 3.5234-7.875 7.8711v78.723c0 4.3477 3.5273 7.8711 7.875 7.8711s7.8711-3.5234 7.8711-7.8711v-78.723c0-2.0859-0.82812-4.0898-2.3047-5.5664-1.4766-1.4727-3.4805-2.3047-5.5664-2.3047z"/> <path d="m407.87 352.77c0-4.3477-3.5234-7.8711-7.8711-7.8711s-7.875 3.5234-7.875 7.8711v78.723c0 4.3477 3.5273 7.8711 7.875 7.8711s7.8711-3.5234 7.8711-7.8711z"/> <path d="m407.87 226.81c0-4.3477-3.5234-7.8711-7.8711-7.8711s-7.875 3.5234-7.875 7.8711v62.977c0 4.3477 3.5273 7.875 7.875 7.875s7.8711-3.5273 7.8711-7.875z"/> </g> </g>
</svg>